<svg xmlns="http://www.w3.org/2000/svg"><symbol id="fb" viewBox="0 0 7 12"><path d="M6.243.003 4.687 0C2.939 0 1.809 1.16 1.809 2.953v1.362H.245A.244.244 0 0 0 0 4.559v1.974c0 .135.11.244.245.244h1.564v4.978c0 .135.11.245.245.245h2.041c.136 0 .246-.11.246-.245V6.777H6.17c.136 0 .245-.11.245-.244V4.559a.246.246 0 0 0-.244-.244H4.34V3.16c0-.555.132-.837.854-.837h1.049c.135 0 .244-.11.244-.245V.246a.245.245 0 0 0-.244-.244v.001Z"/></symbol><symbol id="instagram" viewBox="0 0 13 13"><g clip-path="url(#a)"><path d="M9.413 0H3.587A3.592 3.592 0 0 0 0 3.588v5.825A3.592 3.592 0 0 0 3.587 13h5.825A3.592 3.592 0 0 0 13 9.413V3.588A3.592 3.592 0 0 0 9.413 0ZM6.5 9.85a3.35 3.35 0 1 1 .002-6.699A3.35 3.35 0 0 1 6.5 9.85Zm4.086-6.233a.847.847 0 1 1-1.198-1.198.847.847 0 0 1 1.198 1.198Z"/><path d="M6.497 4.267a2.234 2.234 0 1 0 .007 4.468 2.234 2.234 0 0 0-.007-4.468Z"/></g><defs><clipPath id="a"><path d="M0 0h13v13H0z"/></clipPath></defs></symbol><symbol style="fill-rule:evenodd;clip-rule:evenodd;stroke-linejoin:round;stroke-miterlimit:1.41421" id="pagination" viewBox="0 0 13 13"><path d="M.952 0-6.12 7.074V2.467h-7.654v-4.934h7.654v-4.607L.952 0Zm-5.726-1.121h-7.654v2.242h7.654v2.703L-.952 0l-3.822-3.824v2.703Z" style="fill:#fff;fill-rule:nonzero" transform="translate(12.16 6.245) scale(.88282)"/></symbol><symbol id="tw" viewBox="0 0 16 14"><path d="M15.705 2.118c-.579.252-1.19.42-1.817.498A3.135 3.135 0 0 0 15.275.873c-.61.364-1.282.62-2 .764a3.153 3.153 0 0 0-5.454 2.156c0 .25.022.49.073.72a8.925 8.925 0 0 1-6.5-3.299 3.158 3.158 0 0 0 .97 4.214A3.114 3.114 0 0 1 .94 5.04v.035a3.167 3.167 0 0 0 2.526 3.098c-.257.07-.536.104-.827.104a2.81 2.81 0 0 1-.597-.054 3.183 3.183 0 0 0 2.947 2.196 6.335 6.335 0 0 1-3.91 1.345c-.258 0-.506-.01-.754-.043a8.878 8.878 0 0 0 4.837 1.415c5.802 0 8.974-4.806 8.974-8.972 0-.14-.005-.274-.012-.408.622-.445 1.157-1 1.58-1.637h.001Z"/></symbol><symbol id="youtube" viewBox="0 0 8 9"><path d="M7.44 3.334 1.59.134A1.065 1.065 0 0 0 .526.152C.196.347 0 .692 0 1.076v6.347c0 .382.195.726.523.922a1.07 1.07 0 0 0 1.06.024l5.851-3.145a1.075 1.075 0 0 0 .007-1.89H7.44Z"/></symbol></svg>