<svg width="50" height="38" viewBox="0 0 50 38" version="1.1" xmlns="http://www.w3.org/2000/svg"
     xmlns:xlink="http://www.w3.org/1999/xlink" xml:space="preserve"
     style="fill-rule:evenodd;clip-rule:evenodd;stroke-linejoin:round;stroke-miterlimit:1.41421;">
                        <g transform="matrix(0.909422,0,0,0.909422,0,0)">
                            <rect x="0" y="0" width="54.98" height="40.695" style="fill:rgb(234,7,139);"></rect>
                        </g>
    <g transform="matrix(0.909422,0,0,0.909422,0,0)">
                            <path d="M5.872,14.587C6.903,13.262 10.67,9.389 11.981,8.247C13.292,7.109 13.654,6.993 14.443,6.652C15.233,6.311 15.881,6.113 16.631,6.243C17.383,6.371 18.193,6.932 18.683,7.382C19.173,7.834 19.363,8.175 19.459,8.841C19.553,9.507 19.313,10.452 19.231,11.211C19.147,11.972 18.965,12.689 18.957,13.4C18.949,14.112 18.861,14.907 19.185,15.451C19.508,15.996 20.111,16.029 20.689,16.319C21.267,16.608 22.078,16.739 22.65,17.185C23.222,17.631 23.698,18.256 24.018,18.917C24.337,19.579 24.527,20.289 24.52,21.061C24.511,21.832 24.491,22.433 23.972,23.431C23.454,24.429 22.483,25.833 21.464,26.942C20.447,28.052 19.129,29.165 17.908,30.042C16.686,30.92 15.452,31.677 14.169,32.185C12.886,32.693 11.422,32.974 10.293,33.051C9.166,33.129 8.149,32.845 7.513,32.641C6.876,32.436 6.768,32.209 6.601,31.866C6.433,31.524 6.446,31.055 6.601,30.771C6.756,30.489 7.099,30.46 7.375,30.453C7.653,30.445 7.891,30.596 8.151,30.726C8.412,30.856 8.388,31.165 8.926,31.228C9.464,31.291 10.283,31.458 11.251,31.092C12.221,30.724 13.568,29.898 14.58,29.084C15.592,28.272 16.719,27.01 17.27,26.258C17.82,25.506 17.769,25.143 17.817,24.663C17.864,24.179 17.937,23.827 17.544,23.477C17.15,23.125 16.298,22.99 15.72,22.792C15.141,22.595 14.865,22.531 14.078,22.291C13.291,22.052 14.135,18.072 14.215,17.368C14.296,16.661 14.481,15.05 14.534,14.587C14.597,14.032 14.499,13.049 13.902,12.732C13.305,12.413 12.211,12.763 11.753,13.036C10.45,13.814 7.31,17.973 5.872,18.006C3.526,18.06 5.11,15.562 5.872,14.587L5.872,14.587Z"
                                  style="fill:white;"></path>
                        </g>
    <g transform="matrix(0.909422,0,0,0.909422,0,0)">
                            <path d="M45.944,21.365C46.54,19.795 47.902,14.567 48.197,12.855C48.493,11.143 48.404,10.774 48.286,9.922C48.168,9.071 48.002,8.413 47.503,7.839C47.003,7.262 46.104,6.86 45.464,6.675C44.824,6.489 44.432,6.504 43.815,6.767C43.196,7.031 42.511,7.726 41.906,8.192C41.298,8.657 40.781,9.184 40.175,9.559C39.571,9.935 38.935,10.422 38.302,10.427C37.668,10.434 37.329,9.935 36.781,9.59C36.235,9.246 35.703,8.62 35.026,8.363C34.348,8.105 33.565,8.022 32.834,8.091C32.103,8.161 31.397,8.365 30.742,8.772C30.086,9.18 29.583,9.509 28.998,10.47C28.413,11.429 27.716,12.988 27.295,14.434C26.873,15.879 26.605,17.582 26.486,19.082C26.369,20.582 26.36,22.03 26.592,23.389C26.823,24.75 27.341,26.148 27.86,27.153C28.378,28.159 29.148,28.88 29.652,29.32C30.156,29.757 30.407,29.731 30.787,29.696C31.168,29.662 31.563,29.409 31.723,29.13C31.884,28.851 31.73,28.542 31.595,28.301C31.458,28.061 31.205,27.935 30.959,27.78C30.713,27.625 30.462,27.805 30.128,27.377C29.795,26.95 29.229,26.337 29.04,25.318C28.852,24.299 28.86,22.719 29.031,21.432C29.202,20.145 29.696,18.528 30.055,17.665C30.412,16.806 30.748,16.661 31.135,16.371C31.523,16.082 31.787,15.837 32.291,15.991C32.795,16.145 33.352,16.805 33.821,17.196C34.289,17.587 34.487,17.792 35.1,18.34C35.713,18.888 38.68,16.105 39.241,15.671C39.802,15.235 41.085,14.242 41.454,13.956C41.895,13.614 42.787,13.19 43.368,13.535C43.948,13.882 44.218,14.998 44.22,15.531C44.231,17.049 42.302,21.889 43.02,23.136C44.189,25.172 45.502,22.521 45.944,21.365L45.944,21.365Z"
                                  style="fill:white;"></path>
                        </g>
    <g transform="matrix(0.909422,0,0,0.909422,0,0)">
                            <path d="M35.018,29.245C36.881,29.245 38.4,30.765 38.4,32.625C38.4,34.488 36.881,36.006 35.018,36.006C33.157,36.006 31.637,34.488 31.637,32.625C31.637,30.765 33.157,29.245 35.018,29.245Z"
                                  style="fill:white;"></path>
                        </g>
                    </svg>