<svg width="7" height="12" viewBox="0 0 7 12" xmlns="http://www.w3.org/2000/svg">
<path d="M6.243 0.00300026L4.687 0C2.939 0 1.809 1.16 1.809 2.953V4.315H0.245C0.212873 4.31487 0.181038 4.32108 0.151319 4.33329C0.1216 4.34549 0.0945828 4.36344 0.0718193 4.38611C0.0490558 4.40878 0.0309928 4.43573 0.0186682 4.46539C0.00634354 4.49506 -2.69803e-07 4.52687 0 4.559V6.533C0 6.668 0.11 6.777 0.245 6.777H1.809V11.755C1.809 11.89 1.919 12 2.054 12H4.095C4.231 12 4.341 11.89 4.341 11.755V6.777H6.17C6.306 6.777 6.415 6.667 6.415 6.533V4.559C6.41448 4.49445 6.3886 4.43269 6.34296 4.38704C6.29731 4.3414 6.23555 4.31552 6.171 4.315H4.34V3.16C4.34 2.605 4.472 2.323 5.194 2.323H6.243C6.378 2.323 6.487 2.213 6.487 2.078V0.246C6.48674 0.181369 6.46095 0.119459 6.41524 0.0737572C6.36954 0.0280552 6.30763 0.00226312 6.243 0.00199986V0.00300026Z"/>
</svg>
