<svg width="13" height="13" viewBox="0 0 13 13" xmlns="http://www.w3.org/2000/svg">
<g clip-path="url(#clip0)">
<path d="M9.41274 0H3.58726C2.63612 0.00134465 1.72434 0.379835 1.05187 1.05247C0.379395 1.7251 0.00112014 2.63697 0 3.58811L0 9.41274C0.0011206 10.3638 0.379423 11.2756 1.05192 11.9481C1.72442 12.6206 2.6362 12.9989 3.58726 13H9.4119C10.363 12.9989 11.2749 12.6206 11.9475 11.9481C12.6202 11.2757 12.9987 10.3639 13 9.41274V3.58811C12.9989 2.63697 12.6206 1.7251 11.9481 1.05247C11.2757 0.379835 10.3639 0.00134465 9.41274 0V0ZM6.50042 9.84972C5.83807 9.84955 5.19063 9.653 4.63997 9.28491C4.08932 8.91682 3.66016 8.39372 3.40677 7.78175C3.15337 7.16978 3.08711 6.49642 3.21637 5.8468C3.34563 5.19718 3.66461 4.60047 4.13296 4.13212C4.60132 3.66376 5.19803 3.34479 5.84765 3.21553C6.49727 3.08627 7.17063 3.15252 7.7826 3.40592C8.39457 3.65931 8.91766 4.08847 9.28575 4.63913C9.65384 5.18979 9.8504 5.83722 9.85056 6.49958C9.84967 7.38781 9.49642 8.23941 8.86834 8.86749C8.24026 9.49557 7.38866 9.84882 6.50042 9.84972ZM10.5856 3.6169C10.447 3.75544 10.2647 3.84164 10.0697 3.86079C9.87465 3.87994 9.67902 3.83087 9.51613 3.72193C9.35324 3.61299 9.23317 3.45093 9.17639 3.26338C9.1196 3.07582 9.12963 2.87438 9.20474 2.69338C9.27986 2.51239 9.41542 2.36305 9.58831 2.27081C9.76121 2.17858 9.96075 2.14916 10.1529 2.18757C10.3451 2.22598 10.518 2.32985 10.6421 2.48147C10.7663 2.63308 10.834 2.82306 10.8338 3.01902C10.8327 3.24314 10.7435 3.45786 10.5856 3.6169V3.6169Z"/>
<path d="M6.49696 4.2666C6.05512 4.26727 5.6234 4.39895 5.25639 4.64498C4.88939 4.89101 4.60358 5.24035 4.43512 5.64881C4.26665 6.05728 4.22309 6.50652 4.30995 6.93974C4.3968 7.37296 4.61017 7.7707 4.92308 8.08265C5.23598 8.39461 5.63436 8.60677 6.06784 8.69231C6.50132 8.77786 6.95044 8.73294 7.35839 8.56323C7.76634 8.39353 8.11481 8.10666 8.35972 7.73891C8.60464 7.37116 8.73501 6.93905 8.73434 6.49721C8.73277 5.90492 8.49633 5.33744 8.07688 4.91927C7.65744 4.5011 7.08925 4.26638 6.49696 4.2666V4.2666Z"/>
</g>
<defs>
<clipPath id="clip0">
<rect width="13" height="13"/>
</clipPath>
</defs>
</svg>
