<svg width="16" height="14" viewBox="0 0 16 14" xmlns="http://www.w3.org/2000/svg">
<path d="M15.705 2.11807C15.1263 2.37045 14.5144 2.53817 13.888 2.61607C14.5481 2.22445 15.0416 1.60427 15.275 0.873072C14.665 1.23707 13.993 1.49307 13.275 1.63707C12.8428 1.17505 12.2816 0.85375 11.6644 0.714967C11.0472 0.576184 10.4025 0.626337 9.8142 0.858905C9.22587 1.09147 8.72115 1.49569 8.36566 2.01899C8.01017 2.54229 7.82037 3.16045 7.82095 3.79307C7.82095 4.04307 7.84295 4.28307 7.89395 4.51207C6.63961 4.45053 5.41238 4.12497 4.29248 3.55666C3.17258 2.98835 2.18522 2.19009 1.39495 1.21407C0.990204 1.90797 0.865109 2.73004 1.04513 3.51292C1.22515 4.29581 1.69676 4.98066 2.36395 5.42807C1.86497 5.41441 1.37658 5.281 0.939951 5.03907V5.07407C0.940745 5.80213 1.19236 6.50768 1.65244 7.07194C2.11252 7.6362 2.75296 8.02472 3.46595 8.17207C3.20895 8.24207 2.92995 8.27607 2.63895 8.27607C2.43695 8.27607 2.23395 8.26407 2.04195 8.22207C2.24584 8.84788 2.63872 9.3951 3.16649 9.78837C3.69426 10.1817 4.33097 10.4016 4.98895 10.4181C3.87273 11.2911 2.49603 11.7647 1.07895 11.7631C0.820952 11.7631 0.572951 11.7521 0.324951 11.7201C1.76673 12.6491 3.44678 13.1406 5.16195 13.1351C10.964 13.1351 14.136 8.32907 14.136 4.16307C14.136 4.02307 14.131 3.88907 14.124 3.75507C14.7457 3.30998 15.2812 2.75524 15.704 2.11807H15.705Z"/>
</svg>
