<svg width="8" height="9" viewBox="0 0 8 9" xmlns="http://www.w3.org/2000/svg">
<path d="M7.44 3.33406L1.59 0.134059C1.42665 0.043493 1.24234 -0.00251869 1.05559 0.000640683C0.868837 0.00380005 0.686198 0.0560199 0.526 0.152059C0.196 0.347059 0 0.692059 0 1.07606V7.42306C0 7.80506 0.195 8.14906 0.523 8.34506C0.682372 8.44081 0.863943 8.49338 1.04982 8.49759C1.23569 8.50179 1.41946 8.4575 1.583 8.36906L7.434 5.22406C7.60451 5.13242 7.74711 4.99643 7.84674 4.83047C7.94637 4.6645 7.99935 4.47472 8.00006 4.28114C8.00078 4.08757 7.94921 3.89739 7.85081 3.7307C7.75241 3.564 7.61082 3.42696 7.441 3.33406H7.44Z"/>
</svg>
